<?xml version="1.0" standalone="no"?>
 <!DOCTYPE svg PUBLIC "-//W3C//DTD SVG 1.1//EN" 
 "http://www.w3.org/Graphics/SVG/1.1/DTD/svg11.dtd"> 
<svg xmlns="http://www.w3.org/2000/svg" version="1.1" 
    width="2.57048cm" height="3.04292cm" viewBox="0 0 10120 11980 ">
<title>SVG Picture created as drive1-F.Cu.svg date 2018/05/12 23:04:22 </title>
  <desc>Picture generated by PCBNEW </desc>
<g style="fill:#000000; fill-opacity:1;stroke:#000000; stroke-opacity:1;
stroke-linecap:round; stroke-linejoin:round; "
 transform="translate(0 0) scale(1 1)">
</g>
<g style="fill:#000000; fill-opacity:0.0; 
stroke:#000000; stroke-width:-0.000393701; stroke-opacity:1; 
stroke-linecap:round; stroke-linejoin:round;">
</g>
<g style="fill:#000000; fill-opacity:0.0; 
stroke:#000000; stroke-width:0; stroke-opacity:1; 
stroke-linecap:round; stroke-linejoin:round;">
</g>
<g style="fill:#000000; fill-opacity:1.0; 
stroke:#000000; stroke-width:0; stroke-opacity:1; 
stroke-linecap:round; stroke-linejoin:round;">
<polyline style="fill-rule:evenodd;"
points="6502,10189
6502,9874
6148,9874
6148,10189
6502,10189
" /> 
<polyline style="fill-rule:evenodd;"
points="6502,10937
6502,10622
6148,10622
6148,10937
6502,10937
" /> 
<polyline style="fill-rule:evenodd;"
points="5715,10563
5715,10248
5360,10248
5360,10563
5715,10563
" /> 
<polyline style="fill-rule:evenodd;"
points="6048,5236
6363,5236
6363,4882
6048,4882
6048,5236
" /> 
<polyline style="fill-rule:evenodd;"
points="5300,5236
5615,5236
5615,4882
5300,4882
5300,5236
" /> 
<polyline style="fill-rule:evenodd;"
points="5674,4449
5989,4449
5989,4095
5674,4095
5674,4449
" /> 
<polyline style="fill-rule:evenodd;"
points="3899,3134
3899,2897
3289,2897
3289,3134
3899,3134
" /> 
<polyline style="fill-rule:evenodd;"
points="3899,3634
3899,3397
3289,3397
3289,3634
3899,3634
" /> 
<polyline style="fill-rule:evenodd;"
points="3899,4134
3899,3897
3289,3897
3289,4134
3899,4134
" /> 
<polyline style="fill-rule:evenodd;"
points="3899,4634
3899,4397
3289,4397
3289,4634
3899,4634
" /> 
<polyline style="fill-rule:evenodd;"
points="1773,4634
1773,4397
1163,4397
1163,4634
1773,4634
" /> 
<polyline style="fill-rule:evenodd;"
points="1773,4134
1773,3897
1163,3897
1163,4134
1773,4134
" /> 
<polyline style="fill-rule:evenodd;"
points="1773,3634
1773,3397
1163,3397
1163,3634
1773,3634
" /> 
<polyline style="fill-rule:evenodd;"
points="1773,3134
1773,2897
1163,2897
1163,3134
1773,3134
" /> 
<polyline style="fill-rule:evenodd;"
points="4124,8659
4124,8422
3514,8422
3514,8659
4124,8659
" /> 
<polyline style="fill-rule:evenodd;"
points="4124,9159
4124,8922
3514,8922
3514,9159
4124,9159
" /> 
<polyline style="fill-rule:evenodd;"
points="4124,9659
4124,9422
3514,9422
3514,9659
4124,9659
" /> 
<polyline style="fill-rule:evenodd;"
points="4124,10159
4124,9922
3514,9922
3514,10159
4124,10159
" /> 
<polyline style="fill-rule:evenodd;"
points="1998,10159
1998,9922
1388,9922
1388,10159
1998,10159
" /> 
<polyline style="fill-rule:evenodd;"
points="1998,9659
1998,9422
1388,9422
1388,9659
1998,9659
" /> 
<polyline style="fill-rule:evenodd;"
points="1998,9159
1998,8922
1388,8922
1388,9159
1998,9159
" /> 
<polyline style="fill-rule:evenodd;"
points="1998,8659
1998,8422
1388,8422
1388,8659
1998,8659
" /> 
</g>
<g style="fill:#000000; fill-opacity:1.0; 
stroke:#000000; stroke-width:787; stroke-opacity:1; 
stroke-linecap:round; stroke-linejoin:round;">
</g>
<g style="fill:#000000; fill-opacity:0.0; 
stroke:#000000; stroke-width:787; stroke-opacity:1; 
stroke-linecap:round; stroke-linejoin:round;">
<path d="M7931 5465
L7931 5465
" />
<path d="M7931 3465
L7931 3465
" />
<path d="M7931 2465
L7931 2465
" />
</g>
<g style="fill:#000000; fill-opacity:0.0; 
stroke:#000000; stroke-width:0; stroke-opacity:1; 
stroke-linecap:round; stroke-linejoin:round;">
</g>
<g style="fill:#000000; fill-opacity:1.0; 
stroke:#000000; stroke-width:0; stroke-opacity:1; 
stroke-linecap:round; stroke-linejoin:round;">
<polyline style="fill-rule:evenodd;"
points="7538,1859
8325,1859
8325,1072
7538,1072
7538,1859
" /> 
</g>
<g style="fill:#000000; fill-opacity:1.0; 
stroke:#000000; stroke-width:787; stroke-opacity:1; 
stroke-linecap:round; stroke-linejoin:round;">
</g>
<g style="fill:#000000; fill-opacity:0.0; 
stroke:#000000; stroke-width:787; stroke-opacity:1; 
stroke-linecap:round; stroke-linejoin:round;">
<path d="M7931 4465
L7931 4465
" />
</g>
<g style="fill:#000000; fill-opacity:0.0; 
stroke:#000000; stroke-width:0; stroke-opacity:1; 
stroke-linecap:round; stroke-linejoin:round;">
</g>
<g style="fill:#000000; fill-opacity:1.0; 
stroke:#000000; stroke-width:0; stroke-opacity:1; 
stroke-linecap:round; stroke-linejoin:round;">
<polyline style="fill-rule:evenodd;"
points="6458,2821
6458,2310
5867,2310
5867,2821
6458,2821
" /> 
<polyline style="fill-rule:evenodd;"
points="5395,2821
5395,2310
4804,2310
4804,2821
5395,2821
" /> 
<polyline style="fill-rule:evenodd;"
points="3375,1429
3887,1429
3887,839
3375,839
3375,1429
" /> 
<polyline style="fill-rule:evenodd;"
points="3375,2492
3887,2492
3887,1902
3375,1902
3375,2492
" /> 
<polyline style="fill-rule:evenodd;"
points="5395,3621
5395,3110
4804,3110
4804,3621
5395,3621
" /> 
<polyline style="fill-rule:evenodd;"
points="6458,3621
6458,3110
5867,3110
5867,3621
6458,3621
" /> 
<polyline style="fill-rule:evenodd;"
points="6458,2021
6458,1510
5867,1510
5867,2021
6458,2021
" /> 
<polyline style="fill-rule:evenodd;"
points="5395,2021
5395,1510
4804,1510
4804,2021
5395,2021
" /> 
<polyline style="fill-rule:evenodd;"
points="1995,11021
1995,10510
1404,10510
1404,11021
1995,11021
" /> 
<polyline style="fill-rule:evenodd;"
points="3058,11021
3058,10510
2467,10510
2467,11021
3058,11021
" /> 
<polyline style="fill-rule:evenodd;"
points="6218,9381
6218,8870
5627,8870
5627,9381
6218,9381
" /> 
<polyline style="fill-rule:evenodd;"
points="5155,9381
5155,8870
4564,8870
4564,9381
5155,9381
" /> 
<polyline style="fill-rule:evenodd;"
points="3404,10510
3404,11021
3995,11021
3995,10510
3404,10510
" /> 
<polyline style="fill-rule:evenodd;"
points="4467,10510
4467,11021
5058,11021
5058,10510
4467,10510
" /> 
<polyline style="fill-rule:evenodd;"
points="5627,7990
5627,8501
6218,8501
6218,7990
5627,7990
" /> 
<polyline style="fill-rule:evenodd;"
points="4564,7990
4564,8501
5155,8501
5155,7990
4564,7990
" /> 
<circle cx="7931.66" cy="7088.02" r="472.441" /> 
</g>
<g style="fill:#000000; fill-opacity:1.0; 
stroke:#000000; stroke-width:19.685; stroke-opacity:1; 
stroke-linecap:round; stroke-linejoin:round;">
</g>
<g style="fill:#000000; fill-opacity:1.0; 
stroke:#000000; stroke-width:0; stroke-opacity:1; 
stroke-linecap:round; stroke-linejoin:round;">
<polyline style="fill-rule:evenodd;"
points="7459,8938
8404,8938
8404,7993
7459,7993
7459,8938
" /> 
<polyline style="fill-rule:evenodd;"
points="2359,7638
3304,7638
3304,6693
2359,6693
2359,7638
" /> 
<circle cx="2831.66" cy="5788.02" r="472.441" /> 
</g>
<g style="fill:#000000; fill-opacity:1.0; 
stroke:#000000; stroke-width:19.685; stroke-opacity:1; 
stroke-linecap:round; stroke-linejoin:round;">
</g>
<g style="fill:#000000; fill-opacity:1.0; 
stroke:#000000; stroke-width:0; stroke-opacity:1; 
stroke-linecap:round; stroke-linejoin:round;">
<polyline style="fill-rule:evenodd;"
points="5234,6812
5234,6319
4644,6319
4644,6812
5234,6812
" /> 
<polyline style="fill-rule:evenodd;"
points="6219,6812
6219,6319
5628,6319
5628,6812
6219,6812
" /> 
<circle cx="8006.66" cy="10291" r="787.402" /> 
</g>
<g style="fill:#000000; fill-opacity:1.0; 
stroke:#000000; stroke-width:19.685; stroke-opacity:1; 
stroke-linecap:round; stroke-linejoin:round;">
</g>
<g style="fill:#000000; fill-opacity:1.0; 
stroke:#000000; stroke-width:0; stroke-opacity:1; 
stroke-linecap:round; stroke-linejoin:round;">
<circle cx="2306.66" cy="1715.97" r="787.402" /> 
</g>
<g style="fill:#000000; fill-opacity:1.0; 
stroke:#000000; stroke-width:19.685; stroke-opacity:1; 
stroke-linecap:round; stroke-linejoin:round;">
</g>
<g style="fill:#000000; fill-opacity:1.0; 
stroke:#000000; stroke-width:196.85; stroke-opacity:1; 
stroke-linecap:round; stroke-linejoin:round;">
</g>
<g style="fill:#000000; fill-opacity:0.0; 
stroke:#000000; stroke-width:196.85; stroke-opacity:1; 
stroke-linecap:round; stroke-linejoin:round;">
<path d="M4608 2565
L5100 2565
" />
<path d="M4588 2585
L4608 2565
" />
<path d="M4588 3524
L4588 2585
" />
<path d="M4096 4015
L4588 3524
" />
<path d="M3594 4015
L4096 4015
" />
<path d="M4321 9540
L3819 9540
" />
<path d="M4763 9982
L4321 9540
" />
<path d="M4763 10765
L4763 9982
" />
<path d="M7409 6565
L7931 7088
" />
<path d="M5923 6565
L7409 6565
" />
<path d="M3092 4015
L3594 4015
" />
<path d="M3072 4035
L3092 4015
" />
<path d="M3072 4807
L3072 4035
" />
<path d="M4159 4850
L3116 4850
" />
<path d="M3116 4850
L3072 4807
" />
<path d="M5923 6565
L5874 6565
" />
<path d="M4708 5865
L5174 5865
" />
<path d="M4427 6146
L4708 5865
" />
<path d="M4427 6904
L4427 6146
" />
<path d="M3297 8034
L4427 6904
" />
<path d="M3297 9521
L3297 8034
" />
<path d="M3317 9540
L3297 9521
" />
<path d="M3819 9540
L3317 9540
" />
<path d="M5174 5865
L4159 4850
" />
<path d="M5874 6565
L5174 5865
" />
<path d="M3594 2234
L3631 2197
" />
<path d="M3594 3015
L3594 2234
" />
<path d="M5457 5059
L5457 3949
" />
<path d="M5611 1336
L5541 1265
" />
<path d="M5611 3795
L5611 1336
" />
<path d="M5457 3949
L5611 3795
" />
<path d="M3631 2158
L3631 2197
" />
<path d="M4523 1265
L3631 2158
" />
<path d="M5541 1265
L4523 1265
" />
<path d="M6305 10779
L5931 10405
" />
<path d="M6325 10779
L6305 10779
" />
<path d="M5931 10405
L5931 10065
" />
<path d="M4899 8245
L4860 8245
" />
<path d="M5371 8718
L4899 8245
" />
<path d="M5371 9506
L5371 8718
" />
<path d="M5931 10065
L5371 9506
" />
<path d="M3819 8540
L3819 8477
" />
<path d="M4051 8245
L4860 8245
" />
<path d="M3819 8477
L4051 8245
" />
<path d="M4860 6645
L4939 6565
" />
<path d="M7375 5465
L7931 5465
" />
<path d="M5844 5465
L7375 5465
" />
<path d="M5457 5079
L5844 5465
" />
<path d="M5457 5059
L5457 5079
" />
<path d="M8620 8446
L8620 6154
" />
<path d="M8325 5859
L7931 5465
" />
<path d="M8600 8465
L8620 8446
" />
<path d="M8620 6154
L8325 5859
" />
<path d="M7931 8465
L8600 8465
" />
<path d="M7262 8465
L6831 8035
" />
<path d="M7931 8465
L7262 8465
" />
<path d="M6831 8035
L6831 7665
" />
<path d="M6531 7365
L4860 7365
" />
<path d="M6831 7665
L6531 7365
" />
<path d="M4860 8245
L4860 7365
" />
<path d="M4860 7365
L4860 6645
" />
<path d="M6699 10386
L6345 10031
" />
<path d="M7588 11294
L6699 10405
" />
<path d="M8488 11294
L7588 11294
" />
<path d="M9250 10532
L8488 11294
" />
<path d="M9250 4784
L9250 10532
" />
<path d="M6345 10031
L6325 10031
" />
<path d="M6699 10405
L6699 10386
" />
<path d="M7931 3465
L9250 4784
" />
<path d="M8325 4859
L7931 4465
" />
<path d="M8935 8796
L8935 5469
" />
<path d="M8935 5469
L8325 4859
" />
<path d="M6444 9154
L8577 9154
" />
<path d="M6415 9125
L6444 9154
" />
<path d="M8577 9154
L8935 8796
" />
<path d="M5923 9125
L6415 9125
" />
<path d="M7931 1465
L7231 1465
" />
<path d="M6931 1765
L6163 1765
" />
<path d="M7231 1465
L6931 1765
" />
<path d="M5800 951
L6163 1313
" />
<path d="M4267 951
L5800 951
" />
<path d="M4084 1134
L4267 951
" />
<path d="M6163 1313
L6163 1765
" />
<path d="M3631 1134
L4084 1134
" />
<path d="M6163 2565
L6163 3365
" />
<path d="M6163 3940
L6163 3365
" />
<path d="M5831 4272
L6163 3940
" />
<path d="M4273 2100
L4608 1765
" />
<path d="M4608 1765
L5100 1765
" />
<path d="M4273 3339
L4273 2100
" />
<path d="M4096 3515
L4273 3339
" />
<path d="M3594 3515
L4096 3515
" />
<path d="M5100 3512
L5100 3365
" />
<path d="M4096 4515
L5100 3512
" />
<path d="M3594 4515
L4096 4515
" />
<path d="M4775 9040
L4860 9125
" />
<path d="M3819 9040
L4775 9040
" />
<path d="M3317 10040
L3819 10040
" />
<path d="M2464 10040
L3317 10040
" />
<path d="M1739 10765
L2464 10040
" />
<path d="M1700 10765
L1739 10765
" />
<path d="M2763 10765
L3700 10765
" />
<path d="M5537 10760
L5537 10405
" />
<path d="M5537 10932
L5537 10760
" />
<path d="M5231 11238
L5537 10932
" />
<path d="M4211 11238
L5231 11238
" />
<path d="M3739 10765
L4211 11238
" />
<path d="M3700 10765
L3739 10765
" />
<path d="M6637 5059
L6205 5059
" />
<path d="M6931 4765
L6637 5059
" />
<path d="M6931 2765
L6931 4765
" />
<path d="M7931 2465
L7231 2465
" />
<path d="M7231 2465
L6931 2765
" />
</g>
<g style="fill:#000000; fill-opacity:0.0; 
stroke:#000000; stroke-width:295.276; stroke-opacity:1; 
stroke-linecap:round; stroke-linejoin:round;">
<path d="M1693 10040
L1693 9540
" />
<path d="M1693 9040
L1693 9540
" />
<path d="M1693 9040
L1693 8540
" />
<path d="M1693 8303
L2831 7165
" />
<path d="M1693 8540
L1693 8303
" />
<path d="M2384 5788
L2831 5788
" />
<path d="M1931 5390
L2356 5815
" />
<path d="M1930 5390
L1931 5390
" />
<path d="M1468 4515
L1468 4929
" />
<path d="M2356 5815
L2384 5788
" />
<path d="M1468 4929
L1930 5390
" />
<path d="M1468 4515
L1468 4015
" />
<path d="M1468 4015
L1468 3515
" />
<path d="M1468 3515
L1468 3015
" />
</g>
<g style="fill:#FFFFFF; fill-opacity:0.0; 
stroke:#FFFFFF; stroke-width:295.276; stroke-opacity:1; 
stroke-linecap:round; stroke-linejoin:round;">
</g>
<g style="fill:#FFFFFF; fill-opacity:1.0; 
stroke:#FFFFFF; stroke-width:0; stroke-opacity:1; 
stroke-linecap:round; stroke-linejoin:round;">
<circle cx="8006.66" cy="10291" r="590.551" /> 
</g>
<g style="fill:#FFFFFF; fill-opacity:1.0; 
stroke:#FFFFFF; stroke-width:19.685; stroke-opacity:1; 
stroke-linecap:round; stroke-linejoin:round;">
</g>
<g style="fill:#FFFFFF; fill-opacity:1.0; 
stroke:#FFFFFF; stroke-width:0; stroke-opacity:1; 
stroke-linecap:round; stroke-linejoin:round;">
<circle cx="2306.66" cy="1715.97" r="590.551" /> 
</g>
<g style="fill:#FFFFFF; fill-opacity:1.0; 
stroke:#FFFFFF; stroke-width:19.685; stroke-opacity:1; 
stroke-linecap:round; stroke-linejoin:round;">
</g>
<g style="fill:#FFFFFF; fill-opacity:1.0; 
stroke:#FFFFFF; stroke-width:0; stroke-opacity:1; 
stroke-linecap:round; stroke-linejoin:round;">
<circle cx="7931.66" cy="5465.97" r="216" /> 
</g>
<g style="fill:#FFFFFF; fill-opacity:1.0; 
stroke:#FFFFFF; stroke-width:19.685; stroke-opacity:1; 
stroke-linecap:round; stroke-linejoin:round;">
</g>
<g style="fill:#FFFFFF; fill-opacity:1.0; 
stroke:#FFFFFF; stroke-width:0; stroke-opacity:1; 
stroke-linecap:round; stroke-linejoin:round;">
<circle cx="7931.66" cy="3465.97" r="216" /> 
</g>
<g style="fill:#FFFFFF; fill-opacity:1.0; 
stroke:#FFFFFF; stroke-width:19.685; stroke-opacity:1; 
stroke-linecap:round; stroke-linejoin:round;">
</g>
<g style="fill:#FFFFFF; fill-opacity:1.0; 
stroke:#FFFFFF; stroke-width:0; stroke-opacity:1; 
stroke-linecap:round; stroke-linejoin:round;">
<circle cx="7931.66" cy="2465.97" r="216" /> 
</g>
<g style="fill:#FFFFFF; fill-opacity:1.0; 
stroke:#FFFFFF; stroke-width:19.685; stroke-opacity:1; 
stroke-linecap:round; stroke-linejoin:round;">
</g>
<g style="fill:#FFFFFF; fill-opacity:1.0; 
stroke:#FFFFFF; stroke-width:0; stroke-opacity:1; 
stroke-linecap:round; stroke-linejoin:round;">
<circle cx="7931.66" cy="1465.97" r="216" /> 
</g>
<g style="fill:#FFFFFF; fill-opacity:1.0; 
stroke:#FFFFFF; stroke-width:19.685; stroke-opacity:1; 
stroke-linecap:round; stroke-linejoin:round;">
</g>
<g style="fill:#FFFFFF; fill-opacity:1.0; 
stroke:#FFFFFF; stroke-width:0; stroke-opacity:1; 
stroke-linecap:round; stroke-linejoin:round;">
<circle cx="7931.66" cy="4465.97" r="216" /> 
</g>
<g style="fill:#FFFFFF; fill-opacity:1.0; 
stroke:#FFFFFF; stroke-width:19.685; stroke-opacity:1; 
stroke-linecap:round; stroke-linejoin:round;">
</g>
<g style="fill:#FFFFFF; fill-opacity:1.0; 
stroke:#FFFFFF; stroke-width:0; stroke-opacity:1; 
stroke-linecap:round; stroke-linejoin:round;">
<circle cx="7931.66" cy="7088.02" r="236.22" /> 
</g>
<g style="fill:#FFFFFF; fill-opacity:1.0; 
stroke:#FFFFFF; stroke-width:19.685; stroke-opacity:1; 
stroke-linecap:round; stroke-linejoin:round;">
</g>
<g style="fill:#FFFFFF; fill-opacity:1.0; 
stroke:#FFFFFF; stroke-width:0; stroke-opacity:1; 
stroke-linecap:round; stroke-linejoin:round;">
<circle cx="7931.66" cy="8465.97" r="236.22" /> 
</g>
<g style="fill:#FFFFFF; fill-opacity:1.0; 
stroke:#FFFFFF; stroke-width:19.685; stroke-opacity:1; 
stroke-linecap:round; stroke-linejoin:round;">
</g>
<g style="fill:#FFFFFF; fill-opacity:1.0; 
stroke:#FFFFFF; stroke-width:0; stroke-opacity:1; 
stroke-linecap:round; stroke-linejoin:round;">
<circle cx="2831.66" cy="7165.97" r="236.22" /> 
</g>
<g style="fill:#FFFFFF; fill-opacity:1.0; 
stroke:#FFFFFF; stroke-width:19.685; stroke-opacity:1; 
stroke-linecap:round; stroke-linejoin:round;">
</g>
<g style="fill:#FFFFFF; fill-opacity:1.0; 
stroke:#FFFFFF; stroke-width:0; stroke-opacity:1; 
stroke-linecap:round; stroke-linejoin:round;">
<circle cx="2831.66" cy="5788.02" r="236.22" /> 
</g>
<g style="fill:#FFFFFF; fill-opacity:1.0; 
stroke:#FFFFFF; stroke-width:19.685; stroke-opacity:1; 
stroke-linecap:round; stroke-linejoin:round;">
</g>
<g style="fill:#000000; fill-opacity:1.0; 
stroke:#000000; stroke-width:19.685; stroke-opacity:1; 
stroke-linecap:round; stroke-linejoin:round;">
</g> 
</svg>
